<svg width="864" height="204" viewBox="0 0 864 204" fill="none" xmlns="http://www.w3.org/2000/svg">
<g clip-path="url(#clip0_8249_8538)">
<path d="M99.0267 47.0956L85.1733 50.294L75.3866 41.0672L104.29 34.3943L99.0267 47.0956Z" fill="#7FD858"/>
<path d="M116.76 59.7991L93.8054 65.0986L107.734 31.4782L73.5782 39.3637L63.3501 29.7207L134.913 13.1992C133.382 17.04 129.671 26.3471 126.02 35.613C123.238 42.6725 121.035 48.3259 119.472 52.4103C117.84 56.6805 117.071 58.7305 116.76 59.7991Z" fill="#0226B8"/>
<path d="M123.494 81.4076C120.036 65.8659 119.011 61.7546 118.672 60.6027C119.4 57.9289 129.202 33.0724 136.415 15.0095L142.822 38.7842L123.494 81.4076Z" fill="#7FD858"/>
<path d="M121.636 82.57L94.8575 66.9767L116.9 61.8877C117.654 64.8374 119.9 74.775 121.636 82.57Z" fill="#0226B8"/>
<path d="M143.868 89.5622L136.545 77.3752L142.296 65.2163L157.574 90.6431L143.868 89.5622Z" fill="#7FD858"/>
<path d="M137.267 110.353L125.133 90.1598L161.412 93.0177L143.358 62.97L149.368 50.2627L187.195 113.217C183.069 112.948 173.071 112.295 163.13 111.686C155.557 111.222 149.499 110.873 145.132 110.649C140.566 110.417 138.379 110.319 137.267 110.353Z" fill="#0226B8"/>
<path d="M118.797 123.435C132.51 115.344 136.103 113.099 137.094 112.421C139.862 112.287 166.53 113.928 185.938 115.206L165.307 128.646L118.797 123.435Z" fill="#7FD858"/>
<path d="M117.116 122.027L123.671 91.7405L135.322 111.132C132.75 112.76 123.993 117.967 117.116 122.027Z" fill="#0226B8"/>
<path d="M117.337 145.332L126.665 134.602L140.006 136.314L120.545 158.702L117.337 145.332Z" fill="#7FD858"/>
<path d="M95.5225 145.479L110.978 127.699L119.471 163.086L142.469 136.63L156.412 138.419L108.227 193.849C107.209 189.841 104.74 180.131 102.248 170.488C100.349 163.142 98.8081 157.273 97.6716 153.05C96.482 148.636 95.8991 146.526 95.5225 145.479Z" fill="#0226B8"/>
<path d="M77.373 131.955C89.3057 142.496 92.5514 145.22 93.5025 145.953C94.4851 148.544 101.166 174.414 105.947 193.267L86.7897 177.799L77.373 131.955Z" fill="#7FD858"/>
<path d="M78.1937 129.922L109.024 126.797L94.1816 143.871C91.838 141.928 84.18 135.208 78.1937 129.922Z" fill="#0226B8"/>
<path d="M56.0972 137.334L69.1848 142.889L71.679 156.106L44.3733 144.515L56.0972 137.334Z" fill="#7FD858"/>
<path d="M49.2185 116.633L70.9044 125.838L39.874 144.85L72.1419 158.547L74.7487 172.36L7.1421 143.663C10.6384 141.456 19.1112 136.107 27.5112 130.757C33.9111 126.681 39.0166 123.402 42.6817 121.016C46.5119 118.521 48.339 117.315 49.2185 116.633Z" fill="#0226B8"/>
<path d="M56.4701 95.1928C50.1323 109.799 48.545 113.727 48.1419 114.858C45.9813 116.593 23.4413 130.942 6.98874 141.315L15.7799 118.315L56.4701 95.1928Z" fill="#7FD858"/>
<path d="M58.6578 95.3449L71.1566 123.7L50.3322 114.861C51.4562 112.031 55.4805 102.672 58.6578 95.3449Z" fill="#0226B8"/>
<path d="M118.537 60.1978C118.576 60.2766 118.606 60.3516 118.622 60.4206L118.63 60.4552C118.586 60.3197 118.557 60.2447 118.537 60.1978ZM136.415 15.0095L142.822 38.7843L123.494 81.4077C120.036 65.8659 119.011 61.7547 118.673 60.6027C119.401 57.929 129.202 33.0724 136.415 15.0095ZM116.9 61.8876C117.654 64.8374 119.9 74.775 121.636 82.57L94.8571 66.9767L116.9 61.8876ZM145.012 38.9635L137.345 10.5168L59.1227 28.5758L84.5621 52.5559L98.056 49.4406L90.7827 66.9932L123.625 86.1222L145.012 38.9635ZM85.1731 50.2939L75.3864 41.0671L104.29 34.3942L99.0265 47.0956L85.1731 50.2939ZM93.8054 65.0986L107.734 31.4781L73.5782 39.3637L63.3501 29.7207L134.913 13.1991C133.382 17.04 129.671 26.3471 126.02 35.613C123.238 42.6724 121.035 48.3258 119.472 52.4103C117.84 56.6805 117.071 58.7304 116.76 59.799L93.8054 65.0986ZM137.437 112.166C137.374 112.228 137.312 112.279 137.251 112.316L137.221 112.334C137.336 112.251 137.398 112.2 137.437 112.166ZM185.938 115.206L165.307 128.646L118.797 123.435C132.509 115.344 136.103 113.099 137.093 112.421C139.861 112.287 166.53 113.928 185.938 115.206ZM135.324 111.132C132.751 112.76 123.994 117.967 117.117 122.027L123.672 91.7404L135.324 111.132ZM165.813 130.784L190.498 114.701L149.151 45.8884L134.206 77.493L141.338 89.3638L122.397 87.8705L114.353 125.017L165.813 130.784ZM136.546 77.3751L142.297 65.2162L157.575 90.6431L143.869 89.5622L136.546 77.3751ZM125.133 90.1598L161.412 93.0177L143.358 62.9701L149.368 50.2627L187.195 113.217C183.069 112.948 173.071 112.295 163.131 111.686C155.557 111.222 149.499 110.873 145.132 110.649C140.566 110.417 138.379 110.319 137.267 110.353L125.133 90.1598ZM93.8518 146.2C93.7736 146.16 93.7057 146.116 93.6522 146.07L93.6255 146.047C93.7402 146.131 93.8081 146.174 93.8518 146.2ZM105.949 193.267L86.7911 177.799L77.3744 131.955C89.3071 142.496 92.5528 145.22 93.5039 145.953C94.4865 148.544 101.167 174.414 105.949 193.267ZM94.1828 143.871C91.8392 141.928 84.1811 135.208 78.1949 129.922L109.025 126.797L94.1828 143.871ZM84.9143 178.941L107.838 197.448L160.506 136.86L125.83 132.413L116.744 142.865L112.311 124.389L74.4973 128.218L84.9143 178.941ZM126.665 134.602L140.006 136.314L120.545 158.702L117.337 145.332L126.665 134.602ZM110.979 127.699L119.472 163.085L142.47 136.629L156.413 138.419L108.229 193.849C107.21 189.841 104.741 180.13 102.249 170.488C100.35 163.142 98.8093 157.273 97.6727 153.05C96.4831 148.636 95.9002 146.526 95.5236 145.479L110.979 127.699ZM48.0152 115.266C48.0297 115.179 48.0499 115.101 48.0776 115.036L48.0915 115.003C48.0469 115.138 48.0267 115.216 48.0152 115.266ZM6.99016 141.315L15.7813 118.315L56.4715 95.1928C50.1338 109.799 48.5464 113.727 48.1433 114.858C45.9827 116.594 23.4428 130.942 6.99016 141.315ZM50.3327 114.861C51.4568 112.031 55.4811 102.672 58.6584 95.3449L71.1571 123.7L50.3327 114.861ZM14.1153 116.883L3.59772 144.404L77.4954 175.771L71.0096 141.418L58.2617 136.007L74.4631 126.082L59.1367 91.3017L14.1153 116.883ZM69.1858 142.889L71.6799 156.106L44.3743 144.515L56.0982 137.334L69.1858 142.889ZM70.904 125.838L39.8737 144.85L72.1416 158.547L74.7483 172.36L7.14173 143.663C10.638 141.456 19.1109 136.107 27.5109 130.757C33.9107 126.681 39.0163 123.402 42.6814 121.016C46.5116 118.521 48.3386 117.315 49.2182 116.633L70.904 125.838ZM63.2714 62.1133C63.3585 62.1002 63.439 62.0954 63.5096 62.1015L63.5448 62.1046C63.4026 62.104 63.3222 62.1088 63.2714 62.1133ZM25.8196 31.1459L50.4106 32.3993L84.9751 63.9529C69.1255 62.4388 64.8988 62.1431 63.6985 62.1092C61.3806 60.5906 40.7694 43.5876 25.8196 31.1459ZM64.3727 64.1922C67.4111 64.3869 77.5563 65.3219 85.5062 66.0797L62.401 86.7289L64.3727 64.1922ZM51.2577 30.3724L21.8339 28.8739L14.8371 108.848L45.5047 92.0637L46.7117 78.2676L61.1577 90.609L89.4994 65.2851L51.2577 30.3724ZM43.5423 90.7837L31.7428 97.2401L34.3282 67.6892L44.7814 76.62L43.5423 90.7837ZM60.2899 87.1488L32.6192 63.5123L29.564 98.4335L17.2323 105.181L23.6335 32.0155C26.8132 34.6586 34.518 41.064 42.2022 47.3996C48.0565 52.2266 52.7524 56.0691 56.154 58.8175C59.7109 61.6892 61.4229 63.054 62.3431 63.6798L60.2899 87.1488Z" fill="#0226B8"/>
<path d="M44.7814 76.62L43.5422 90.7837L31.7428 97.2401L34.3281 67.6892L44.7814 76.62Z" fill="#7FD858"/>
<path d="M62.3425 63.6798L60.2892 87.1487L32.6185 63.5123L29.5633 98.4334L17.2317 105.181L23.6328 32.0155C26.8125 34.6585 34.5173 41.064 42.2015 47.3995C48.0559 52.2266 52.7517 56.0691 56.1534 58.8175C59.7102 61.6891 61.4222 63.054 62.3425 63.6798Z" fill="#0226B8"/>
<path d="M84.9741 63.9529C69.1244 62.4388 64.8977 62.1431 63.6975 62.1092C61.3796 60.5906 40.7684 43.5877 25.8185 31.1459L50.4095 32.3994L84.9741 63.9529Z" fill="#7FD858"/>
<path d="M85.5054 66.0797L62.4002 86.729L64.3719 64.1923C67.4102 64.387 77.5554 65.322 85.5054 66.0797Z" fill="#0226B8"/>
<path d="M196.414 196.163H210.208V191.361H201.563V174.647H196.414V196.163ZM223.848 196.163H239.198V191.361H229.016V187.806H238.526V183.004H229.016V179.449H239.198V174.647H223.848V196.163ZM251.955 196.163H257.295L258.928 191.802H266.248L267.881 196.163H273.222L265.038 174.647H260.12L251.955 196.163ZM260.312 187.614L262.579 181.351L264.865 187.614H260.312ZM298.927 191.361L299.811 196.163H305.075L303.845 190.285C303.384 188.018 302.308 186.846 300.31 186.212C303.192 185.405 304.978 183.445 304.978 180.698C304.978 176.645 302.577 174.647 298.37 174.647H286.247V196.163H291.415V188.267H295.142C296.852 188.267 298.389 188.536 298.927 191.361ZM291.415 184.079V178.835H297.006C298.927 178.835 299.695 179.68 299.695 181.294C299.695 182.907 298.37 184.079 296.468 184.079H291.415ZM318.215 196.163H323.076V182.523L332.24 196.163H336.485V174.647H331.625V185.828L324.152 174.647H318.215V196.163ZM369.279 196.163H376.157C381.536 196.163 384.591 193.954 384.591 189.651C384.591 185.751 383.016 183.926 377.848 182.639C374.87 181.908 373.948 181.313 373.948 180.179C373.948 179.373 374.236 178.796 375.888 178.796H383.016V174.647H375.619C371.22 174.647 368.665 177.067 368.665 180.794C368.665 184.329 371.22 186.596 375.312 187.614C379.02 188.536 379.308 188.844 379.308 190.208C379.308 191.361 378.309 192.014 375.389 192.014H369.279V196.163ZM398.212 196.163H403.361V179.968L407.76 196.163H412.928L417.328 179.91V196.163H422.495V174.647H414.407L410.354 188.421L406.281 174.647H398.212V196.163ZM435.521 196.163H440.862L442.495 191.802H449.814L451.447 196.163H456.788L448.623 174.647H443.705L435.521 196.163ZM443.878 187.614L446.164 181.351L448.431 187.614H443.878ZM482.493 191.361L483.377 196.163H488.641L487.411 190.285C486.95 188.018 485.874 186.846 483.876 186.212C486.758 185.405 488.545 183.445 488.545 180.698C488.545 176.645 486.143 174.647 481.936 174.647H469.833V196.163H474.981V188.267H478.708C480.437 188.267 481.974 188.536 482.493 191.361ZM474.981 184.079V178.835H480.591C482.493 178.835 483.262 179.68 483.262 181.294C483.262 182.907 481.936 184.079 480.034 184.079H474.981ZM507.391 196.163H512.559V179.449H518.399V174.647H501.551V179.449H507.391V196.163ZM531.117 196.528C532.77 196.528 533.884 195.587 533.884 194.069C533.884 192.629 532.77 191.61 531.117 191.61C529.465 191.61 528.351 192.59 528.351 194.069C528.351 195.549 529.465 196.528 531.117 196.528ZM547.774 196.163H552.942V188.575H558.052C564.065 188.575 565.89 184.137 565.89 181.313C565.89 177.375 563.451 174.647 558.071 174.647H547.774V196.163ZM552.942 184.387V178.835H557.591C559.493 178.835 560.588 179.91 560.588 181.62C560.588 183.349 559.493 184.387 557.591 184.387H552.942ZM575.131 196.163H580.491L582.105 191.802H589.425L591.057 196.163H596.398L588.233 174.647H583.315L575.131 196.163ZM583.488 187.614L585.774 181.351L588.041 187.614H583.488ZM609.77 196.163H616.666C622.046 196.163 625.081 193.954 625.081 189.651C625.081 185.751 623.525 183.926 618.357 182.639C615.379 181.908 614.457 181.313 614.457 180.179C614.457 179.373 614.726 178.796 616.378 178.796H623.525V174.647H616.109C611.71 174.647 609.155 177.067 609.155 180.794C609.155 184.329 611.71 186.596 615.802 187.614C619.529 188.536 619.798 188.844 619.798 190.208C619.798 191.361 618.818 192.014 615.898 192.014H609.77V196.163ZM639.048 196.163H645.926C651.305 196.163 654.34 193.954 654.34 189.651C654.34 185.751 652.784 183.926 647.616 182.639C644.638 181.908 643.716 181.313 643.716 180.179C643.716 179.373 643.985 178.796 645.657 178.796H652.784V174.647H645.369C640.969 174.647 638.433 177.067 638.433 180.794C638.433 184.329 640.969 186.596 645.061 187.614C648.788 188.536 649.057 188.844 649.057 190.208C649.057 191.361 648.077 192.014 645.157 192.014H639.048V196.163ZM686.865 196.163H693.762C699.142 196.163 702.177 193.954 702.177 189.651C702.177 185.751 700.602 183.926 695.453 182.639C692.456 181.908 691.534 181.313 691.534 180.179C691.534 179.373 691.822 178.796 693.474 178.796H700.602V174.647H693.205C688.806 174.647 686.251 177.067 686.251 180.794C686.251 184.329 688.806 186.596 692.898 187.614C696.606 188.536 696.894 188.844 696.894 190.208C696.894 191.361 695.914 192.014 692.994 192.014H686.865V196.163ZM721.389 196.163H726.557V179.449H732.397V174.647H715.548V179.449H721.389V196.163ZM758.697 191.361L759.6 196.163H764.845L763.616 190.285C763.155 188.018 762.079 186.846 760.081 186.212C762.982 185.405 764.768 183.445 764.768 180.698C764.768 176.645 762.367 174.647 758.16 174.647H746.037V196.163H751.205V188.267H754.932C756.642 188.267 758.179 188.536 758.697 191.361ZM751.205 184.079V178.835H756.795C758.697 178.835 759.466 179.68 759.466 181.294C759.466 182.907 758.16 184.079 756.238 184.079H751.205ZM788.187 196.528C794.546 196.528 798.581 191.764 798.581 185.405C798.581 179.046 794.546 174.281 788.187 174.281C781.751 174.281 777.736 179.046 777.736 185.405C777.736 191.764 781.751 196.528 788.187 196.528ZM788.187 191.61C784.864 191.61 783.019 189.439 783.019 185.367C783.019 181.371 784.864 179.2 788.187 179.2C791.434 179.2 793.278 181.371 793.278 185.367C793.278 189.439 791.434 191.61 788.187 191.61ZM812.182 196.163H817.043V182.523L826.207 196.163H830.452V174.647H825.592V185.828L818.119 174.647H812.182V196.163ZM855.159 196.163H862.286V185.405H857.137V191.975H854.697C851.067 191.975 849.357 189.612 849.357 185.463C849.357 181.351 852.066 178.835 856.427 178.835H861.191L861.21 174.647H855.658C848.281 174.647 844.074 178.739 844.074 185.597C844.074 192.11 848.185 196.125 855.159 196.163Z" fill="#0226B8" stroke="#7FD858" stroke-width="2" stroke-linecap="round"/>
<path d="M247.268 117.568V126.137H274.394L288.399 106.157L327.053 51.4424V42.874H300.157L247.268 117.568ZM250.149 42.874V62.8348H271.974L286.152 42.874H250.149ZM327.994 126.137H288.399L302.462 106.157H327.994V126.137ZM378.29 93.8038L345.246 42.874H376.043L405.167 93.6885L405.052 93.8038V126.137H378.29V93.8038ZM412.564 82.104L399.269 58.8196L408.433 42.874H437.615L412.564 82.104ZM460.266 92.6319V42.874H486.97V126.022C478.338 124.088 471.729 120.297 467.144 114.648C462.558 108.987 460.266 101.649 460.266 92.6319ZM501.033 127.616V107.636C501.186 107.636 501.385 107.636 501.628 107.636C506.393 107.636 510.043 106.221 512.579 103.39C515.128 100.547 516.402 96.8392 516.402 92.2669V42.874H543.106V92.6319C543.106 104.018 539.52 112.695 532.348 118.664C525.188 124.632 514.987 127.616 501.744 127.616C501.513 127.616 501.276 127.616 501.033 127.616ZM596.36 126.137H573.729V42.874H596.36V126.137ZM625.139 126.137L610.366 95.7634V77.2627H617.993C620.08 77.2627 621.854 76.5134 623.314 75.0149C624.774 73.5164 625.504 71.6721 625.504 69.482C625.504 67.3047 624.774 65.4924 623.314 64.0451C621.854 62.6107 620.08 61.8934 617.993 61.8934H610.366V42.874H624.678C633.541 42.874 640.432 45.3331 645.35 50.2513C650.281 55.1822 652.746 61.2339 652.746 68.4062C652.746 73.478 651.376 78.076 648.635 82.2C645.894 86.3113 641.905 89.3339 636.666 91.2679L655.167 126.137H625.139ZM700.141 126.137H672.784L703.215 42.874H724.847L700.141 126.137ZM732.82 114.379H717.701L723.253 95.7634H727.268L725.308 88.9625L736.835 49.9054L764.673 126.137H736.374L732.82 114.379ZM814.142 126.137H787.438V42.874H814.142V126.137ZM856.869 126.137H828.205V104.87H856.869V126.137Z" fill="#0F2E89" stroke="#429321" stroke-width="4" stroke-linecap="round"/>
</g>
<defs>
<clipPath id="clip0_8249_8538">
<rect width="864" height="204" fill="white"/>
</clipPath>
</defs>
</svg>
