<?xml version="1.0" encoding="UTF-8" standalone="no" ?>
<!DOCTYPE svg PUBLIC "-//W3C//DTD SVG 1.1//EN" "http://www.w3.org/Graphics/SVG/1.1/DTD/svg11.dtd">
<svg xmlns="http://www.w3.org/2000/svg" xmlns:xlink="http://www.w3.org/1999/xlink" version="1.1" width="1280" height="1024" viewBox="0 0 1280 1024" xml:space="preserve">
<desc>Created with Fabric.js 5.3.0</desc>
<defs>
</defs>
<g transform="matrix(1 0 0 1 640 512)" id="background-logo"  >
<rect style="stroke: none; stroke-width: 0; stroke-dasharray: none; stroke-linecap: butt; stroke-dashoffset: 0; stroke-linejoin: miter; stroke-miterlimit: 4; fill: rgb(255,255,255); fill-opacity: 0; fill-rule: nonzero; opacity: 1;"  paint-order="stroke"  x="-640" y="-512" rx="0" ry="0" width="1280" height="1024" />
</g>
<g transform="matrix(1.9211538461538462 0 0 1.9211538461538462 332.9039655097115 530.4254285926525)" id="text-logo"  >
<g style=""  paint-order="stroke"   >
		<g transform="matrix(1 0 0 1 0 0)" id="text-logo-path-0"  >
<path style="stroke: rgb(255,255,255); stroke-width: 10; stroke-dasharray: none; stroke-linecap: butt; stroke-dashoffset: 0; stroke-linejoin: miter; stroke-miterlimit: 4; fill: rgb(2,38,184); fill-rule: nonzero; opacity: 0.72;"  paint-order="stroke"  transform=" translate(0, 0)" d="" stroke-linecap="round" />
</g>
</g>
</g>
<g transform="matrix(0.9115566790022608 0 0 0.9115566790022607 223.46034633493332 492.9588212898199)" id="logo-logo"  >
<g style=""  paint-order="stroke"   >
		<g transform="matrix(0.3226323125393933 0.02822666983434969 -0.02822666983434969 0.3226323125393933 -10.95615577710123 -65.90340104314481)"  >
<polygon style="stroke: none; stroke-width: 1; stroke-dasharray: none; stroke-linecap: butt; stroke-dashoffset: 0; stroke-linejoin: miter; stroke-miterlimit: 4; fill: rgb(127,216,88); fill-rule: nonzero; opacity: 1;"  paint-order="stroke"  points="33.769831950000025,14.765580600000021 -12.033086550000007,29.647848399999987 -47.78107434999998,1.4021703999999886 47.78107435000004,-29.647848399999987 33.769831950000025,14.765580600000021 " />
</g>
		<g transform="matrix(0.3226323125393933 0.02822666983434969 -0.02822666983434969 0.3226323125393933 -1.9205598271481676 -70.50191062543183)"  >
<path style="stroke: none; stroke-width: 1; stroke-dasharray: none; stroke-linecap: butt; stroke-dashoffset: 0; stroke-linejoin: miter; stroke-miterlimit: 4; fill: rgb(2,38,184); fill-rule: nonzero; opacity: 1;"  paint-order="stroke"  transform=" translate(-559.9908105000001, -295.40772864999997)" d="M 630.796025 364.380821 L 554.9017198 389.0403713 L 591.9780368 271.47934829999997 L 479.04952720000006 308.17203889999996 L 441.68889500000006 278.65231739999996 L 678.2927260000001 201.77508599999996 C 674.2600830000001 215.18764619999996 664.4851701000001 247.68900159999995 654.9011038000001 280.0336874999999 C 647.5987191000002 304.67640019999993 641.8326285 324.40372269999995 637.7651842000001 338.6477617999999 C 633.5189213000001 353.5387828999999 631.5293354000002 360.6832667999999 630.7960249000001 364.3808209999999 Z" stroke-linecap="round" />
</g>
		<g transform="matrix(0.3226323125393933 0.02822666983434969 -0.02822666983434969 0.3226323125393933 34.45589002581073 -58.87746192329362)"  >
<path style="stroke: none; stroke-width: 1; stroke-dasharray: none; stroke-linecap: butt; stroke-dashoffset: 0; stroke-linejoin: miter; stroke-miterlimit: 4; fill: rgb(127,216,88); fill-rule: nonzero; opacity: 1;"  paint-order="stroke"  transform=" translate(-675.011565, -321.37473665000005)" d="M 659.8984754 435.3091562 C 643.642137 383.8858146 638.9699673 370.3153742 637.4871147 366.5282485 C 639.1542504 357.2910152 664.890521 270.5212564 683.8977247 207.44031710000002 L 712.5360153 285.7745172 L 659.8984754 435.30915619999996 Z" stroke-linecap="round" />
</g>
		<g transform="matrix(0.3226323125393933 0.02822666983434969 -0.02822666983434969 0.3226323125393933 9.970846177204692 -33.643136556513866)"  >
<path style="stroke: none; stroke-width: 1; stroke-dasharray: none; stroke-linecap: butt; stroke-dashoffset: 0; stroke-linejoin: miter; stroke-miterlimit: 4; fill: rgb(2,38,184); fill-rule: nonzero; opacity: 1;"  paint-order="stroke"  transform=" translate(-606.48741455, -405.5837042)" d="M 653.9698554 439.7800017 L 559.0049736000001 395.0673784 L 631.8844456 371.3874067 C 635.2986546000001 381.11863519999997 645.8106916 413.9890364 653.9698555 439.78000169999996 Z" stroke-linecap="round" />
</g>
		<g transform="matrix(0.3226323125393933 0.02822666983434969 -0.02822666983434969 0.3226323125393933 52.81387714750872 -26.519488967190767)"  >
<polygon style="stroke: none; stroke-width: 1; stroke-dasharray: none; stroke-linecap: butt; stroke-dashoffset: 0; stroke-linejoin: miter; stroke-miterlimit: 4; fill: rgb(127,216,88); fill-rule: nonzero; opacity: 1;"  paint-order="stroke"  points="-9.130820099999937,40.84451405000004 -37.438580499999944,1.882231250000018 -21.622075499999937,-40.84451404999999 37.43858050000006,40.44549075000003 -9.130820099999937,40.84451405000004 " />
</g>
		<g transform="matrix(0.3226323125393933 0.02822666983434969 -0.02822666983434969 0.3226323125393933 64.13328966389167 -22.349596939377562)"  >
<path style="stroke: none; stroke-width: 1; stroke-dasharray: none; stroke-linecap: butt; stroke-dashoffset: 0; stroke-linejoin: miter; stroke-miterlimit: 4; fill: rgb(2,38,184); fill-rule: nonzero; opacity: 1;"  paint-order="stroke"  transform=" translate(-776.1281109000001, -425.74643259999993)" d="M 714.9184615 528.9179832 L 668.0132014000001 464.35844249999997 L 791.2776100000001 463.29175519999995 L 721.4839528000001 367.22904409999995 L 738.0138109000001 322.57488199999995 L 884.2430204000001 523.8420868 C 870.2407602000001 524.1515251 836.3095147000001 524.8985032999999 802.5862456000001 525.7785738 C 776.8930681 526.4486115 756.3494461000001 527.0608123 741.5456482000001 527.5940937 C 726.0712756 528.157237 718.6616507000001 528.4727956 714.9184616000001 528.9179831 Z" stroke-linecap="round" />
</g>
		<g transform="matrix(0.3226323125393933 0.02822666983434969 -0.02822666983434969 0.3226323125393933 57.984134419477414 19.667792337111848)"  >
<path style="stroke: none; stroke-width: 1; stroke-dasharray: none; stroke-linecap: butt; stroke-dashoffset: 0; stroke-linejoin: miter; stroke-miterlimit: 4; fill: rgb(127,216,88); fill-rule: nonzero; opacity: 1;"  paint-order="stroke"  transform=" translate(-768.5209250500001, -556.6450226)" d="M 656.454746 578.5141144 C 700.3377738 547.1627341000001 711.8002521 538.5257407 714.9437966 535.9451781 C 724.2441024000001 534.676256 814.7200063 532.3395695 880.5871042000001 530.923409 L 814.9365581000001 582.3666362 L 656.4547459 578.5141144 Z" stroke-linecap="round" />
</g>
		<g transform="matrix(0.3226323125393933 0.02822666983434969 -0.02822666983434969 0.3226323125393933 30.229490658329894 6.038273551724927)"  >
<path style="stroke: none; stroke-width: 1; stroke-dasharray: none; stroke-linecap: butt; stroke-dashoffset: 0; stroke-linejoin: miter; stroke-miterlimit: 4; fill: rgb(2,38,184); fill-rule: nonzero; opacity: 1;"  paint-order="stroke"  transform=" translate(-679.480908, -522.19027275)" d="M 650.3706742 574.2572299 L 663.549151 470.12331559999996 L 708.5911418000001 532.1182865 C 700.3912406000001 538.3725066999999 672.3780238 558.5275587 650.3706742 574.2572299 Z" stroke-linecap="round" />
</g>
		<g transform="matrix(0.3226323125393933 0.02822666983434969 -0.02822666983434969 0.3226323125393933 31.446381404692488 49.46335035983384)"  >
<polygon style="stroke: none; stroke-width: 1; stroke-dasharray: none; stroke-linecap: butt; stroke-dashoffset: 0; stroke-linejoin: miter; stroke-miterlimit: 4; fill: rgb(127,216,88); fill-rule: nonzero; opacity: 1;"  paint-order="stroke"  points="-36.91544294999994,-2.602268249999952 -8.607682649999902,-41.56455095000001 36.915442950000056,-39.72545385000001 -22.14521304999994,41.56455095000001 -36.91544294999994,-2.602268249999952 " />
</g>
		<g transform="matrix(0.3226323125393933 0.02822666983434969 -0.02822666983434969 0.3226323125393933 27.148625110621253 65.92304734582552)"  >
<path style="stroke: none; stroke-width: 1; stroke-dasharray: none; stroke-linecap: butt; stroke-dashoffset: 0; stroke-linejoin: miter; stroke-miterlimit: 4; fill: rgb(2,38,184); fill-rule: nonzero; opacity: 1;"  paint-order="stroke"  transform=" translate(-686.11997645, -707.2224988500001)" d="M 584.4295562 659.7679399 L 631.3348162999999 595.2083992 L 670.4400933999999 712.1101732000001 L 740.2337505999999 616.0474621000001 L 787.8103968999999 617.9693937000001 L 641.5811873999999 819.2365985000001 C 636.9599576999999 806.0152817000002 625.7642075999998 773.9755842000002 614.5061473999999 742.1748118000002 C 605.9292750999999 717.9462052000001 598.9987090999999 698.5972435000001 593.9169030999999 684.6827906000002 C 588.5994777999999 670.1398112000002 586.0096636999999 663.1903533000002 584.4295559999999 659.7679400000002 Z" stroke-linecap="round" />
</g>
		<g transform="matrix(0.3226323125393933 0.02822666983434969 -0.02822666983434969 0.3226323125393933 -8.557168047312416 66.53698306776732)"  >
<path style="stroke: none; stroke-width: 1; stroke-dasharray: none; stroke-linecap: butt; stroke-dashoffset: 0; stroke-linejoin: miter; stroke-miterlimit: 4; fill: rgb(127,216,88); fill-rule: nonzero; opacity: 1;"  paint-order="stroke"  transform=" translate(-576.4556255499999, -718.7197823)" d="M 519.1945425 619.4916995 C 562.5720836 651.5388224999999 574.3284545 659.7713074 577.7541245 661.9635577 C 581.8348939 670.416554 612.0158071 755.7421611 633.7167086 817.9478651000001 L 564.5041491999999 771.4073279 L 519.1945425999999 619.4916995000001 Z" stroke-linecap="round" />
</g>
		<g transform="matrix(0.3226323125393933 0.02822666983434969 -0.02822666983434969 0.3226323125393933 -7.01766737694237 35.79414503847019)"  >
<path style="stroke: none; stroke-width: 1; stroke-dasharray: none; stroke-linecap: butt; stroke-dashoffset: 0; stroke-linejoin: miter; stroke-miterlimit: 4; fill: rgb(2,38,184); fill-rule: nonzero; opacity: 1;"  paint-order="stroke"  transform=" translate(-572.9178135500001, -623.74176495)" d="M 521.3629994 612.3899547 L 624.4726278 592.7442795 L 579.430637 654.7392504 C 570.9486103 648.8733426 543.1234533 628.4594484999999 521.3629993000001 612.3899547 Z" stroke-linecap="round" />
</g>
		<g transform="matrix(0.3226323125393933 0.02822666983434969 -0.02822666983434969 0.3226323125393933 -45.06417480415615 48.575471049036366)"  >
<polygon style="stroke: none; stroke-width: 1; stroke-dasharray: none; stroke-linecap: butt; stroke-dashoffset: 0; stroke-linejoin: miter; stroke-miterlimit: 4; fill: rgb(127,216,88); fill-rule: nonzero; opacity: 1;"  paint-order="stroke"  points="-10.340177849999975,-29.37281875000008 35.462740550000035,-14.490551050000022 47.78107435000004,29.372818749999965 -47.78107434999998,-1.6772001500000897 -10.340177849999975,-29.37281875000008 " />
</g>
		<g transform="matrix(0.3226323125393933 0.02822666983434969 -0.02822666983434969 0.3226323125393933 -62.73190942978226 44.77361210631301)"  >
<path style="stroke: none; stroke-width: 1; stroke-dasharray: none; stroke-linecap: butt; stroke-dashoffset: 0; stroke-linejoin: miter; stroke-miterlimit: 4; fill: rgb(2,38,184); fill-rule: nonzero; opacity: 1;"  paint-order="stroke"  transform=" translate(-403.9595486, -666.3555878499999)" d="M 419.6605411 576.1004984 L 495.5548463 600.7600487 L 396.4588281 674.0760055999999 L 509.3873377 710.7686961999999 L 522.2614641 756.6106772999999 L 285.6576331 679.7334458999999 C 296.8038163 671.2527844999998 323.8157077 650.7041841999999 350.5811129 630.1701554999999 C 370.9734918 614.5260153999999 387.2337885 601.9554986999999 398.8968575 592.8226122999998 C 411.0848805 583.2714133999998 416.8939123 578.6608535999999 419.6605412 576.1004983999999 Z" stroke-linecap="round" />
</g>
		<g transform="matrix(0.3226323125393933 0.02822666983434969 -0.02822666983434969 0.3226323125393933 -74.30267904873938 17.87616501956677)"  >
<path style="stroke: none; stroke-width: 1; stroke-dasharray: none; stroke-linecap: butt; stroke-dashoffset: 0; stroke-linejoin: miter; stroke-miterlimit: 4; fill: rgb(127,216,88); fill-rule: nonzero; opacity: 1;"  paint-order="stroke"  transform=" translate(-361.12991739999995, -586.73396215)" d="M 437.8068009 501.6122816 C 420.73256779999997 552.7698731 416.5359264 566.494822 415.50956229999997 570.4302699 C 408.7313107 576.9234309999999 336.908237 631.9942427999999 284.45303379999996 671.8556427 L 307.32786569999996 591.6487817 L 437.80680099999995 501.6122817 Z" stroke-linecap="round" />
</g>
		<g transform="matrix(0.3226323125393933 0.02822666983434969 -0.02822666983434969 0.3226323125393933 -41.50943053551549 7.98241808306696)"  >
<path style="stroke: none; stroke-width: 1; stroke-dasharray: none; stroke-linecap: butt; stroke-dashoffset: 0; stroke-linejoin: miter; stroke-miterlimit: 4; fill: rgb(2,38,184); fill-rule: nonzero; opacity: 1;"  paint-order="stroke"  transform=" translate(-459.3380948, -547.4761561500001)" d="M 445.2310527 501.4800465 L 495.7778308 593.4722658000001 L 422.8983588 569.7922941 C 425.8560792 559.9127435 436.67240319999996 527.1412111000001 445.23105269999996 501.48004650000007 Z" stroke-linecap="round" />
</g>
		<g transform="matrix(0.3226323125393933 0.02822666983434969 -0.02822666983434969 0.3226323125393933 0 0)"  >
<path style="stroke: none; stroke-width: 1; stroke-dasharray: none; stroke-linecap: butt; stroke-dashoffset: 0; stroke-linejoin: miter; stroke-miterlimit: 4; fill: rgb(2,38,184); fill-rule: nonzero; opacity: 1;"  paint-order="stroke"  transform=" translate(-584.8712544499999, -511.75189455000003)" d="M 636.9089675 365.2019918 C 637.0651754 365.4562019 637.1866186 365.70059369999996 637.2607985 365.92889599999995 L 637.297879 366.0430180999999 C 637.1115166 365.59882539999995 636.9900735 365.35443359999994 636.9089675 365.20199169999995 Z M 683.8977246 207.4403171 L 712.5360152 285.7745172 L 659.8984753 435.30915619999996 C 643.6421369 383.88581459999995 638.9699671999999 370.31537419999995 637.4871145999999 366.52824849999996 C 639.1542503 357.29101519999995 664.8905209 270.52125639999997 683.8977246 207.44031709999996 Z M 631.8844455 371.3874067 C 635.2986545 381.11863519999997 645.8106915 413.9890364 653.9698553999999 439.78000169999996 L 559.0049735999999 395.06737839999994 L 631.8844455999998 371.38740669999993 Z M 719.9773555 285.7329943 L 685.7067538 192.00588779999998 L 427.0859392 276.0368696 L 520.008287 349.44510449999996 L 564.6223847 334.94910799999997 L 545.2612906 396.3260243 L 661.7323602 451.1791598 L 719.9773554 285.7329943 Z M 521.4021103 341.631989 L 485.6541225 313.3863111 L 581.2162712 282.3362922 L 567.2050288 326.74972130000003 L 521.4021104000001 341.63198900000003 Z M 554.9017198 389.0403712 L 591.9780368 271.4793482 L 479.04952720000006 308.1720388 L 441.68889500000006 278.6523173 L 678.2927260000001 201.7750859 C 674.2600830000001 215.1876461 664.4851701000001 247.6890015 654.9011038000001 280.03368739999996 C 647.5987191000002 304.67640009999997 641.8326285 324.4037226 637.7651842000001 338.64776169999993 C 633.5189213000001 353.5387827999999 631.5293354000002 360.68326669999993 630.7960249000001 364.38082089999995 L 554.9017197000002 389.0403711999999 Z M 716.0264846 534.9854917 C 715.8329873 535.2126095 715.6380848 535.40363 715.4438792 535.5447286 L 715.3468011 535.61526 C 715.7116644 535.3007558 715.9065669 535.1097353 716.0264846 534.9854918000001 Z M 880.5871042 530.923409 L 814.9365581 582.3666362 L 656.4547458999999 578.5141144 C 700.3377737 547.1627341000001 711.8002519999999 538.5257407 714.9437965 535.9451781 C 724.2441023 534.676256 814.7200062 532.3395695 880.5871041 530.923409 Z M 708.5911418 532.1182865 C 700.3912406 538.3725066999999 672.3780237999999 558.5275587 650.3706741999999 574.2572299 L 663.5491509999999 470.12331559999996 L 708.5911418 532.1182865 Z M 817.2755494 589.4309388 L 895.8251421 527.8743967 L 735.9886885 307.87843030000005 L 694.8878807 418.93721130000006 L 722.4609094 456.8882229000001 L 658.1050759 457.44124160000007 L 641.9281745999999 585.1623430000001 L 817.2755493 589.4309387000001 Z M 702.7493115 417.8484304 L 718.5658165 375.1216851 L 777.6264724 456.4116899 L 731.0570718 456.8107132 L 702.7493114 417.8484305 Z M 668.0132014 464.3584425 L 791.27761 463.2917552 L 721.4839528 367.2290441 L 738.0138109 322.574882 L 884.2430204 523.8420868000001 C 870.2407602 524.1515251000001 836.3095147 524.8985033 802.5862456 525.7785738000001 C 776.8930680999999 526.4486115000001 756.3494461 527.0608123000001 741.5456482 527.5940937000001 C 726.0712755999999 528.1572370000001 718.6616507 528.4727956000002 714.9184616 528.9179831000001 L 668.0132015 464.3584424000001 Z M 579.0014096 662.6966956 C 578.7256138 662.582852 578.4837142 662.4565173 578.2895086999999 662.3154187 L 578.1924306 662.2448873 C 578.6042908999999 662.4947056999999 578.8461904 662.6210404 579.0014096 662.6966954999999 Z M 633.7167086 817.9478651 L 564.5041491999999 771.4073278999999 L 519.1945425999999 619.4916994999999 C 562.5720836999999 651.5388224999999 574.3284545999999 659.7713073999998 577.7541245999998 661.9635576999999 C 581.8348939999998 670.4165539999999 612.0158071999998 755.7421610999999 633.7167086999998 817.9478651 Z M 579.430637 654.7392504 C 570.9486103 648.8733426 543.1234533 628.4594484999999 521.3629993000001 612.3899547 L 624.4726277000001 592.7442795 L 579.4306369000001 654.7392504 Z M 558.508385 775.81483 L 641.3253047999999 831.4979013000001 L 801.1617583999999 611.5019349000002 L 682.8377144 606.7318014000001 L 655.2646857 644.6828130000001 L 634.8516873 583.6476811000001 L 508.38274279999996 607.7305273000001 L 558.508385 775.81483 Z M 686.3025225 613.8720132 L 731.825648 615.7111103 L 672.7649921 697.0011151 L 657.9947622 652.834296 L 686.3025226 613.8720132999999 Z M 631.3348164 595.2083992 L 670.4400935 712.1101732000001 L 740.2337507 616.0474621000001 L 787.810397 617.9693937000001 L 641.5811874999999 819.2365985000001 C 636.9599578 806.0152817000002 625.7642076999999 773.9755842000002 614.5061475 742.1748118000002 C 605.9292752 717.9462052000001 598.9987092 698.5972435000001 593.9169032 684.6827906000002 C 588.5994779 670.1398112000002 586.0096638 663.1903533000002 584.4295561 659.7679400000002 L 631.3348162 595.2083993000002 Z M 415.1977389 571.8430604 C 415.220785 571.5455834 415.2661854 571.2764838 415.3403653 571.0481815 L 415.3774458 570.9340594 C 415.26712619999995 571.4029598000001 415.2217258 571.6720595 415.1977389 571.8430605 Z M 284.4530338 671.8556427 L 307.3278657 591.6487817 L 437.806801 501.6122817 C 420.7325679 552.7698732 416.5359265 566.4948221 415.5095624 570.43027 C 408.7313108 576.9234310999999 336.9082371 631.9942428999999 284.4530339 671.8556427999999 Z M 422.8983588 569.792294 C 425.8560792 559.9127434 436.67240319999996 527.141211 445.23105269999996 501.4800464 L 495.77783079999995 593.4722657 L 422.8983587999999 569.792294 Z M 301.2832883 587.308465 L 273.91736679999997 683.2790377 L 532.5381814 767.3100195 L 500.5107083 653.3031338999999 L 455.8966106 638.8071373999999 L 507.6365173 600.5323325999999 L 445.6513124 487.6952486999999 L 301.2832883 587.308465 Z M 494.7906468 658.8048085 L 507.1089806 702.6681783 L 411.54683190000003 671.6181594 L 448.98772840000004 643.9225407 L 494.79064680000005 658.8048084 Z M 495.5548462 600.7600486 L 396.458828 674.0760055000001 L 509.38733759999997 710.7686961 L 522.2614639999999 756.6106772 L 285.6576329999999 679.7334458 C 296.8038161999999 671.2527844 323.81570759999994 650.7041841 350.5811127999999 630.1701554 C 370.9734916999999 614.5260153 387.2337883999999 601.9554986 398.89685739999993 592.8226122 C 411.0848803999999 583.2714133 416.89391219999993 578.6608535 419.66054109999993 576.1004983 L 495.55484629999995 600.7600486 Z M 450.9865778 387.981222 C 451.2766169 387.9112147 451.5465754 387.8712367 451.7866267 387.8712367 L 451.9066218 387.8712367 C 451.42658029999996 387.9112147 451.15662169999996 387.9511927 450.98657779999996 387.981222 Z M 315.4666072 294.5412276 L 398.8165902 291.5111986 L 524.7666136 387.7812098 C 470.8366161 387.3512172 456.48657820000005 387.6012171 452.4265803 387.8412074 C 444.1566211 383.40120529999996 369.58660710000004 332.11123169999996 315.46660710000003 294.5412277 Z M 455.3165953 394.6712238 C 465.6265938 394.4312336 500.1366066 394.5912067 527.1865968 394.8012287 L 455.31659529999996 471.3012221 L 455.31659529999996 394.6712238 Z M 401.0766002 284.4212333 L 301.3466108 288.0512379 L 301.3466108 559.9812071 L 399.87658780000004 494.2912103 L 399.87658780000004 447.3811802 L 452.26660710000004 484.7611819 L 540.4265881 390.9411827 L 401.0766001 284.4212334 Z M 392.8765873 490.5512204 L 354.9666108 515.8211767 L 354.9666108 415.34120490000004 L 392.8765873 442.3911904 L 392.8765873 490.55122040000003 Z M 448.3165947 473.3411999 L 347.9666102 401.7511792 L 347.9666102 520.4912202 L 308.3466115 546.9011911 L 308.3466115 298.1212443 C 319.8565613 306.1012241 347.7465784 325.4411882 375.54656869999997 344.551233 C 396.72662429999997 359.11122930000005 413.7066063 370.6911844 425.99658539999996 378.9612032 C 438.84662319999995 387.6012171 445.02661639999997 391.7011923 448.31659469999994 393.541219 L 448.31659469999994 473.3411999 Z" stroke-linecap="round" />
</g>
		<g transform="matrix(0.3226323125393933 0.02822666983434969 -0.02822666983434969 0.3226323125393933 -66.75592994031933 -20.850567197079386)"  >
<polygon style="stroke: none; stroke-width: 1; stroke-dasharray: none; stroke-linecap: butt; stroke-dashoffset: 0; stroke-linejoin: miter; stroke-miterlimit: 4; fill: rgb(127,216,88); fill-rule: nonzero; opacity: 1;"  paint-order="stroke"  points="18.954988249999985,-23.190000399999974 18.954988249999985,24.970029599999975 -18.954988249999985,50.23998590000002 -18.954988249999985,-50.23998590000002 18.954988249999985,-23.190000399999974 " />
</g>
		<g transform="matrix(0.3226323125393933 0.02822666983434969 -0.02822666983434969 0.3226323125393933 -64.11739822489164 -34.62185249105431)"  >
<path style="stroke: none; stroke-width: 1; stroke-dasharray: none; stroke-linecap: butt; stroke-dashoffset: 0; stroke-linejoin: miter; stroke-miterlimit: 4; fill: rgb(2,38,184); fill-rule: nonzero; opacity: 1;"  paint-order="stroke"  transform=" translate(-378.3316031, -422.5112177)" d="M 448.3165947 393.541219 L 448.3165947 473.3411999 L 347.9666102 401.7511792 L 347.9666102 520.4912202 L 308.3466115 546.9011911 L 308.3466115 298.1212443 C 319.8565613 306.1012241 347.7465784 325.4411882 375.54656869999997 344.551233 C 396.72662429999997 359.11122930000005 413.7066063 370.6911844 425.99658539999996 378.9612032 C 438.84662319999995 387.6012171 445.02661639999997 391.7011923 448.31659469999994 393.541219 Z" stroke-linecap="round" />
</g>
		<g transform="matrix(0.3226323125393933 0.02822666983434969 -0.02822666983434969 0.3226323125393933 -48.29804806483645 -60.16765322032404)"  >
<path style="stroke: none; stroke-width: 1; stroke-dasharray: none; stroke-linecap: butt; stroke-dashoffset: 0; stroke-linejoin: miter; stroke-miterlimit: 4; fill: rgb(127,216,88); fill-rule: nonzero; opacity: 1;"  paint-order="stroke"  transform=" translate(-420.11661045, -339.67620304999997)" d="M 524.7666137 387.7812098 C 470.8366162 387.3512172 456.4865783 387.6012171 452.4265804 387.8412074 C 444.15662119999996 383.40120529999996 369.5866072 332.11123169999996 315.4666072 294.5412277 L 398.8165902 291.51119869999997 L 524.7666136 387.78120989999996 Z" stroke-linecap="round" />
</g>
		<g transform="matrix(0.3226323125393933 0.02822666983434969 -0.02822666983434969 0.3226323125393933 -27.97974028330799 -28.074284460692866)"  >
<path style="stroke: none; stroke-width: 1; stroke-dasharray: none; stroke-linecap: butt; stroke-dashoffset: 0; stroke-linejoin: miter; stroke-miterlimit: 4; fill: rgb(2,38,184); fill-rule: nonzero; opacity: 1;"  paint-order="stroke"  transform=" translate(-491.25159605, -432.926208824779)" d="M 527.1865968 394.8012287 L 455.31659529999996 471.3012221 L 455.31659529999996 394.6712238 C 465.62659379999997 394.4312336 500.13660659999994 394.5912067 527.1865968 394.8012287 Z" stroke-linecap="round" />
</g>
</g>
</g>
<g transform="matrix(1.9211538461538462 0 0 1.9211538461538462 653.34969619403 576.40492871898)" id="tagline-ab135dd1-92b8-48f6-bb6e-341a94c92726-logo"  >
<g style=""  paint-order="stroke"   >
		<g transform="matrix(1 0 0 1 0 0)" id="tagline-ab135dd1-92b8-48f6-bb6e-341a94c92726-logo-path-0"  >
<path style="stroke: rgb(127,216,88); stroke-width: 2; stroke-dasharray: none; stroke-linecap: butt; stroke-dashoffset: 0; stroke-linejoin: miter; stroke-miterlimit: 4; fill: rgb(2,38,184); fill-rule: nonzero; opacity: 1;"  paint-order="stroke"  transform=" translate(-173.88000000000002, 5.6000000000000005)" d="M 0.58 0 L 7.76 0 L 7.76 -2.5 L 3.26 -2.5 L 3.26 -11.2 L 0.58 -11.2 Z M 14.86 0 L 22.85 0 L 22.85 -2.5 L 17.55 -2.5 L 17.55 -4.35 L 22.5 -4.35 L 22.5 -6.85 L 17.55 -6.85 L 17.55 -8.7 L 22.85 -8.7 L 22.85 -11.2 L 14.86 -11.2 Z M 29.49 0 L 32.27 0 L 33.12 -2.27 L 36.93 -2.27 L 37.78 0 L 40.56 0 L 36.3 -11.2 L 33.74 -11.2 Z M 33.84 -4.45 L 35.02 -7.71 L 36.21 -4.45 Z M 53.94 -2.5 L 54.4 0 L 57.14 0 L 56.5 -3.06 C 56.26 -4.24 55.7 -4.85 54.66 -5.18 C 56.16 -5.6 57.09 -6.62 57.09 -8.05 C 57.09 -10.16 55.84 -11.2 53.65 -11.2 L 47.34 -11.2 L 47.34 0 L 50.03 0 L 50.03 -4.11 L 51.97 -4.11 C 52.86 -4.11 53.66 -3.97 53.94 -2.5 Z M 50.03 -6.29 L 50.03 -9.02 L 52.94 -9.02 C 53.94 -9.02 54.34 -8.58 54.34 -7.74 C 54.34 -6.9 53.65 -6.29 52.66 -6.29 Z M 63.98 0 L 66.51 0 L 66.51 -7.1 L 71.28 0 L 73.49 0 L 73.49 -11.2 L 70.96 -11.2 L 70.96 -5.38 L 67.07 -11.2 L 63.98 -11.2 Z M 90.56 0 L 94.14 0 C 96.94 0 98.53 -1.15 98.53 -3.39 C 98.53 -5.42 97.71 -6.37 95.02 -7.04 C 93.47 -7.42 92.99 -7.73 92.99 -8.32 C 92.99 -8.74 93.14 -9.04 94 -9.04 L 97.71 -9.04 L 97.71 -11.2 L 93.86 -11.2 C 91.57 -11.2 90.24 -9.94 90.24 -8 C 90.24 -6.16 91.57 -4.98 93.7 -4.45 C 95.63 -3.97 95.78 -3.81 95.78 -3.1 C 95.78 -2.5 95.26 -2.16 93.74 -2.16 L 90.56 -2.16 Z M 105.62 0 L 108.3 0 L 108.3 -8.43 L 110.59 0 L 113.28 0 L 115.57 -8.46 L 115.57 0 L 118.26 0 L 118.26 -11.2 L 114.05 -11.2 L 111.94 -4.03 L 109.82 -11.2 L 105.62 -11.2 Z M 125.04 0 L 127.82 0 L 128.67 -2.27 L 132.48 -2.27 L 133.33 0 L 136.11 0 L 131.86 -11.2 L 129.3 -11.2 Z M 129.39 -4.45 L 130.58 -7.71 L 131.76 -4.45 Z M 149.49 -2.5 L 149.95 0 L 152.69 0 L 152.05 -3.06 C 151.81 -4.24 151.25 -4.85 150.21 -5.18 C 151.71 -5.6 152.64 -6.62 152.64 -8.05 C 152.64 -10.16 151.39 -11.2 149.2 -11.2 L 142.9 -11.2 L 142.9 0 L 145.58 0 L 145.58 -4.11 L 147.52 -4.11 C 148.42 -4.11 149.22 -3.97 149.49 -2.5 Z M 145.58 -6.29 L 145.58 -9.02 L 148.5 -9.02 C 149.49 -9.02 149.89 -8.58 149.89 -7.74 C 149.89 -6.9 149.2 -6.29 148.21 -6.29 Z M 162.45 0 L 165.14 0 L 165.14 -8.7 L 168.18 -8.7 L 168.18 -11.2 L 159.41 -11.2 L 159.41 -8.7 L 162.45 -8.7 Z M 174.8 0.19 C 175.66 0.19 176.24 -0.3 176.24 -1.09 C 176.24 -1.84 175.66 -2.37 174.8 -2.37 C 173.94 -2.37 173.36 -1.86 173.36 -1.09 C 173.36 -0.32 173.94 0.19 174.8 0.19 Z M 183.47 0 L 186.16 0 L 186.16 -3.95 L 188.82 -3.95 C 191.95 -3.95 192.9 -6.26 192.9 -7.73 C 192.9 -9.78 191.63 -11.2 188.83 -11.2 L 183.47 -11.2 Z M 186.16 -6.13 L 186.16 -9.02 L 188.58 -9.02 C 189.57 -9.02 190.14 -8.46 190.14 -7.57 C 190.14 -6.67 189.57 -6.13 188.58 -6.13 Z M 197.71 0 L 200.5 0 L 201.34 -2.27 L 205.15 -2.27 L 206 0 L 208.78 0 L 204.53 -11.2 L 201.97 -11.2 Z M 202.06 -4.45 L 203.25 -7.71 L 204.43 -4.45 Z M 215.74 0 L 219.33 0 C 222.13 0 223.71 -1.15 223.71 -3.39 C 223.71 -5.42 222.9 -6.37 220.21 -7.04 C 218.66 -7.42 218.18 -7.73 218.18 -8.32 C 218.18 -8.74 218.32 -9.04 219.18 -9.04 L 222.9 -9.04 L 222.9 -11.2 L 219.04 -11.2 C 216.75 -11.2 215.42 -9.94 215.42 -8 C 215.42 -6.16 216.75 -4.98 218.88 -4.45 C 220.82 -3.97 220.96 -3.81 220.96 -3.1 C 220.96 -2.5 220.45 -2.16 218.93 -2.16 L 215.74 -2.16 Z M 230.98 0 L 234.56 0 C 237.36 0 238.94 -1.15 238.94 -3.39 C 238.94 -5.42 238.13 -6.37 235.44 -7.04 C 233.89 -7.42 233.41 -7.73 233.41 -8.32 C 233.41 -8.74 233.55 -9.04 234.42 -9.04 L 238.13 -9.04 L 238.13 -11.2 L 234.27 -11.2 C 231.98 -11.2 230.66 -9.94 230.66 -8 C 230.66 -6.16 231.98 -4.98 234.11 -4.45 C 236.05 -3.97 236.19 -3.81 236.19 -3.1 C 236.19 -2.5 235.68 -2.16 234.16 -2.16 L 230.98 -2.16 Z M 255.87 0 L 259.46 0 C 262.26 0 263.84 -1.15 263.84 -3.39 C 263.84 -5.42 263.02 -6.37 260.34 -7.04 C 258.78 -7.42 258.3 -7.73 258.3 -8.32 C 258.3 -8.74 258.45 -9.04 259.31 -9.04 L 263.02 -9.04 L 263.02 -11.2 L 259.17 -11.2 C 256.88 -11.2 255.55 -9.94 255.55 -8 C 255.55 -6.16 256.88 -4.98 259.01 -4.45 C 260.94 -3.97 261.09 -3.81 261.09 -3.1 C 261.09 -2.5 260.58 -2.16 259.06 -2.16 L 255.87 -2.16 Z M 273.84 0 L 276.53 0 L 276.53 -8.7 L 279.57 -8.7 L 279.57 -11.2 L 270.8 -11.2 L 270.8 -8.7 L 273.84 -8.7 Z M 293.26 -2.5 L 293.73 0 L 296.46 0 L 295.82 -3.06 C 295.58 -4.24 295.02 -4.85 293.98 -5.18 C 295.49 -5.6 296.42 -6.62 296.42 -8.05 C 296.42 -10.16 295.17 -11.2 292.98 -11.2 L 286.67 -11.2 L 286.67 0 L 289.36 0 L 289.36 -4.11 L 291.3 -4.11 C 292.19 -4.11 292.99 -3.97 293.26 -2.5 Z M 289.36 -6.29 L 289.36 -9.02 L 292.27 -9.02 C 293.26 -9.02 293.66 -8.58 293.66 -7.74 C 293.66 -6.9 292.98 -6.29 291.98 -6.29 Z M 308.61 0.19 C 311.92 0.19 314.02 -2.29 314.02 -5.6 C 314.02 -8.91 311.92 -11.39 308.61 -11.39 C 305.26 -11.39 303.17 -8.91 303.17 -5.6 C 303.17 -2.29 305.26 0.19 308.61 0.19 Z M 308.61 -2.37 C 306.88 -2.37 305.92 -3.5 305.92 -5.62 C 305.92 -7.7 306.88 -8.83 308.61 -8.83 C 310.3 -8.83 311.26 -7.7 311.26 -5.62 C 311.26 -3.5 310.3 -2.37 308.61 -2.37 Z M 321.1 0 L 323.63 0 L 323.63 -7.1 L 328.4 0 L 330.61 0 L 330.61 -11.2 L 328.08 -11.2 L 328.08 -5.38 L 324.19 -11.2 L 321.1 -11.2 Z M 343.47 0 L 347.18 0 L 347.18 -5.6 L 344.5 -5.6 L 344.5 -2.18 L 343.23 -2.18 C 341.34 -2.18 340.45 -3.41 340.45 -5.57 C 340.45 -7.71 341.86 -9.02 344.13 -9.02 L 346.61 -9.02 L 346.62 -11.2 L 343.73 -11.2 C 339.89 -11.2 337.7 -9.07 337.7 -5.5 C 337.7 -2.11 339.84 -0.02 343.47 0 Z" stroke-linecap="round" />
</g>
</g>
</g>
<g transform="matrix(1.9211538461538462 0 0 1.9211538461538462 676.0680839036829 476.24509957315416)" id="tagline-35a7a50b-1784-445f-beb6-bb4b6c10a222-logo"  >
<g style=""  paint-order="stroke"   >
		<g transform="matrix(1 0 0 1 0 0)" id="tagline-35a7a50b-1784-445f-beb6-bb4b6c10a222-logo-path-0"  >
<path style="stroke: rgb(66,147,33); stroke-width: 3; stroke-dasharray: none; stroke-linecap: butt; stroke-dashoffset: 0; stroke-linejoin: miter; stroke-miterlimit: 4; fill: rgb(15,46,137); fill-rule: nonzero; opacity: 1;"  paint-order="stroke"  transform=" translate(-160.165, 21.285)" d="M 1.51 -4.46 L 1.51 0 L 15.63 0 L 22.92 -10.4 L 43.04 -38.88 L 43.04 -43.34 L 29.04 -43.34 L 1.51 -4.46 Z M 3.01 -43.34 L 3.01 -32.95 L 14.37 -32.95 L 21.75 -43.34 L 3.01 -43.34 Z M 43.53 0 L 22.92 0 L 30.24 -10.4 L 43.53 -10.4 L 43.53 0 Z M 69.71 -16.83 L 52.51 -43.34 L 68.54 -43.34 L 83.7 -16.89 L 83.64 -16.83 L 83.64 0 L 69.71 0 L 69.71 -16.83 Z M 87.55 -22.92 L 80.63 -35.04 L 85.4 -43.34 L 100.59 -43.34 L 87.55 -22.92 Z M 112.38 -17.44 L 112.38 -17.44 L 112.38 -43.34 L 126.28 -43.34 L 126.28 -0.06 Q 119.54 -1.57 115.96 -5.98 Q 112.38 -10.4 112.38 -17.44 Z M 133.6 0.77 L 133.6 0.77 L 133.6 -9.63 Q 133.72 -9.63 133.91 -9.63 L 133.91 -9.63 Q 137.63 -9.63 139.61 -11.84 Q 141.6 -14.06 141.6 -17.63 L 141.6 -17.63 L 141.6 -43.34 L 155.5 -43.34 L 155.5 -17.44 Q 155.5 -8.55 149.9 -3.89 Q 144.31 0.77 133.97 0.77 L 133.97 0.77 Q 133.79 0.77 133.6 0.77 Z M 183.22 0 L 171.44 0 L 171.44 -43.34 L 183.22 -43.34 L 183.22 0 Z M 198.2 0 L 190.51 -15.81 L 190.51 -25.44 L 194.48 -25.44 Q 196.11 -25.44 197.25 -26.61 Q 198.39 -27.78 198.39 -29.49 Q 198.39 -31.19 197.25 -32.32 Q 196.11 -33.44 194.48 -33.44 L 194.48 -33.44 L 190.51 -33.44 L 190.51 -43.34 L 197.96 -43.34 Q 204.88 -43.34 208.72 -39.5 Q 212.57 -35.65 212.57 -30.05 L 212.57 -30.05 Q 212.57 -26.09 210.43 -22.87 Q 208.29 -19.66 204.2 -18.15 L 204.2 -18.15 L 213.83 0 L 198.2 0 Z M 237.24 0 L 223 0 L 238.84 -43.34 L 250.1 -43.34 L 237.24 0 Z M 254.25 -6.12 L 246.38 -6.12 L 249.27 -15.81 L 251.36 -15.81 L 250.34 -19.35 L 256.34 -39.68 L 270.83 0 L 256.1 0 L 254.25 -6.12 Z M 296.58 0 L 282.68 0 L 282.68 -43.34 L 296.58 -43.34 L 296.58 0 Z M 318.82 0 L 303.9 0 L 303.9 -11.07 L 318.82 -11.07 L 318.82 0 Z" stroke-linecap="round" />
</g>
</g>
</g>
</svg>