<svg xmlns="http://www.w3.org/2000/svg" width="60" height="60" viewBox="0 0 60 60" fill="none">
  <g clip-path="url(#clip0_1149_15261)">
    <path d="M47.6742 20.7891V36.2287C47.6742 36.9518 47.242 37.6049 46.5756 37.8862C41.7815 39.9155 36.4611 41.7602 30.6132 43.4202C30.4526 43.4648 30.286 43.4878 30.1206 43.4878C29.9553 43.4878 29.7886 43.4648 29.6281 43.4202C23.7801 41.7602 18.4598 39.9155 13.6657 37.8862C13.0006 37.6049 12.5684 36.9517 12.5684 36.2287V21.336L30.1206 21.0632L47.6742 20.7891Z" fill="#365E7D"/>
    <path d="M30.1206 21.0625V43.4872C29.9553 43.4872 29.7886 43.4643 29.6281 43.4196C23.7801 41.7597 18.4598 39.915 13.6657 37.8856C13.0006 37.6044 12.5684 36.9512 12.5684 36.2281V21.3353L30.1206 21.0625Z" fill="#2B4D66"/>
    <path d="M47.6741 21.3906V27.8965C42.6313 29.653 37.3449 31.3239 31.8157 32.909C30.6289 33.2494 29.3685 33.2494 28.1818 32.909C22.7419 31.3492 17.5374 29.7074 12.5684 27.9821V21.9374L47.6741 21.3906Z" fill="#2B4D66"/>
    <path d="M58.3041 16.5164C50.2019 13.2674 41.3728 10.2727 31.8168 7.53249C30.6302 7.19229 29.3701 7.19229 28.1836 7.53249C18.6278 10.2727 9.79866 13.2674 1.69647 16.5164C-0.565505 17.4234 -0.282729 20.3411 1.97925 21.2481C10.0814 24.4972 18.6278 27.1636 28.1838 29.9037C29.3703 30.2439 30.6305 30.855 31.817 30.5147C41.373 27.7745 50.202 24.78 58.3043 21.5308C60.5661 20.6239 60.5661 17.4236 58.3041 16.5164Z" fill="#365E7D"/>
    <path d="M32.4579 30.2872C32.4845 30.2945 32.5098 30.3018 32.5364 30.3089C32.2973 30.3777 32.0571 30.4465 31.8169 30.5154C30.6302 30.8558 29.3697 30.8558 28.1831 30.5154C18.6276 27.775 9.79782 24.7809 1.69587 21.5322C-0.565289 20.6243 -0.565289 17.4239 1.69587 16.5172C1.88536 16.4412 2.07497 16.3651 2.26575 16.2891C1.06809 17.5856 1.40008 19.8807 3.25928 20.6255C11.3611 23.8755 22.9024 27.5468 32.4579 30.2872Z" fill="#2B4D66"/>
    <path d="M44.5312 44.5776C44.031 44.5776 43.6258 44.1722 43.6258 43.6722V26.5161L29.61 19.8404C29.1586 19.6253 28.9669 19.0851 29.1819 18.6335C29.3971 18.182 29.9375 17.9903 30.3889 18.2055L44.9206 25.1271C45.2359 25.2772 45.4366 25.5953 45.4366 25.9445V43.6721C45.4366 44.1721 45.0312 44.5776 44.5312 44.5776Z" fill="#F6E781"/>
    <path d="M44.5308 43.0703C42.7114 43.0703 41.2363 44.5454 41.2363 46.3648V52.724H47.8253V46.3648C47.8254 44.5454 46.3504 43.0703 44.5308 43.0703Z" fill="#F6E781"/>
    <path d="M45.6052 43.2507C44.3137 43.6952 43.3861 44.9222 43.3861 46.3635V52.7228H41.2363V46.3635C41.2363 44.5454 42.7115 43.0703 44.5295 43.0703C44.9063 43.0704 45.2686 43.1331 45.6052 43.2507Z" fill="#F1CB86"/>
  </g>
  <defs>
    <clipPath id="clip0_1149_15261">
      <rect width="60" height="60" fill="white"/>
    </clipPath>
  </defs>
</svg>