<svg xmlns="http://www.w3.org/2000/svg" width="60" height="60" viewBox="0 0 60 60" fill="none">
  <g clip-path="url(#clip0_454_678)">
    <path d="M47.6953 60H12.3047C5.51988 60 0 54.4801 0 47.6953V12.3047C0 5.51988 5.51988 0 12.3047 0H47.6953C54.4801 0 60 5.51988 60 12.3047V47.6953C60 54.4801 54.4801 60 47.6953 60Z" fill="#DD86F2"/>
    <path d="M47.6953 0H30V60H47.6953C54.4801 60 60 54.4801 60 47.6953V12.3047C60 5.51988 54.4801 0 47.6953 0Z" fill="#CD67E5"/>
    <path d="M36.1591 39.9067L35.0725 48.6002C34.8525 50.3595 33.357 51.6797 31.584 51.6797H28.4161C26.643 51.6797 25.1475 50.3595 24.9277 48.6001L23.841 39.9066C23.3777 36.2019 26.2664 32.9297 30 32.9297C27.0922 32.9297 24.7266 30.564 24.7266 27.6562C24.7266 24.7485 27.0922 22.3828 30 22.3828C32.9078 22.3828 35.2734 24.7485 35.2734 27.6562C35.2734 30.564 32.9078 32.9297 30 32.9297C33.7336 32.9297 36.6223 36.2019 36.1591 39.9067ZM30 18.8672C24.5075 18.8672 20.0391 23.3357 20.0391 28.8281C20.0391 30.8078 20.622 32.6528 21.6217 34.205C20.9031 35.4261 20.4606 36.7898 20.3237 38.1978C17.9728 35.7709 16.5234 32.4659 16.5234 28.8281C16.5234 21.3971 22.569 15.3516 30 15.3516C37.431 15.3516 43.4766 21.3971 43.4766 28.8281C43.4766 32.4659 42.0272 35.7709 39.6764 38.198C39.5395 36.7898 39.0969 35.4263 38.3784 34.2052C39.378 32.6528 39.9609 30.8078 39.9609 28.8281C39.9609 23.3357 35.4925 18.8672 30 18.8672ZM38.7701 47.3634L39.3111 43.0348C43.9337 39.9948 46.9922 34.7624 46.9922 28.8281C46.9922 19.4586 39.3695 11.8359 30 11.8359C20.6305 11.8359 13.0078 19.4586 13.0078 28.8281C13.0078 34.7624 16.0663 39.9948 20.6889 43.0348L21.2299 47.3634C14.2973 44.0699 9.49219 37.0001 9.49219 28.8281C9.49219 17.5201 18.692 8.32031 30 8.32031C41.308 8.32031 50.5078 17.5201 50.5078 28.8281C50.5078 37.0001 45.7027 44.0699 38.7701 47.3634Z" fill="white"/>
    <path d="M30 32.9297V51.6797H31.584C33.3571 51.6797 34.8526 50.3595 35.0725 48.6001L36.1591 39.9066C36.6223 36.2019 33.7336 32.9297 30 32.9297Z" fill="#F2F2F2"/>
    <path d="M35.2734 27.6562C35.2734 24.7485 32.9078 22.3828 30 22.3828V32.9297C32.9078 32.9297 35.2734 30.564 35.2734 27.6562Z" fill="#F2F2F2"/>
    <path d="M30 8.32031V11.8359C39.3695 11.8359 46.9922 19.4586 46.9922 28.8281C46.9922 34.7624 43.9337 39.9948 39.3111 43.0348L38.7701 47.3634C45.7027 44.0699 50.5078 37.0001 50.5078 28.8281C50.5078 17.5201 41.308 8.32031 30 8.32031Z" fill="#F2F2F2"/>
    <path d="M39.6764 38.198C42.0272 35.7709 43.4766 32.4659 43.4766 28.8281C43.4766 21.3971 37.431 15.3516 30 15.3516V18.8672C35.4925 18.8672 39.9609 23.3357 39.9609 28.8281C39.9609 30.8078 39.378 32.6528 38.3783 34.205C39.0969 35.4262 39.5395 36.7898 39.6764 38.198Z" fill="#F2F2F2"/>
  </g>
  <defs>
    <clipPath id="clip0_454_678">
      <rect width="60" height="60" fill="white"/>
    </clipPath>
  </defs>
</svg>