<svg width="81" height="22" viewBox="0 0 81 22" fill="none" xmlns="http://www.w3.org/2000/svg">
<path d="M26.0815 4.63662C25.9168 4.63662 25.777 4.75615 25.7513 4.9189L23.8454 17.0051C23.8385 17.0493 23.8412 17.0944 23.8534 17.1374C23.8656 17.1804 23.8869 17.2202 23.916 17.2542C23.945 17.2882 23.9811 17.3154 24.0217 17.3341C24.0622 17.3528 24.1064 17.3625 24.1511 17.3625H26.4113C26.5757 17.3625 26.7157 17.2427 26.7415 17.0802L27.3013 13.531C27.3268 13.3685 27.4669 13.2487 27.6316 13.2487H29.6864C32.0874 13.2487 34.1255 11.4969 34.4978 9.12315C34.8731 6.72929 33.003 4.64182 30.3524 4.63662H26.0815ZM28.2786 7.33473H29.9227C31.2762 7.33473 31.717 8.13339 31.5776 9.01661C31.4383 9.90173 30.7537 10.5537 29.4443 10.5537H27.7709L28.2786 7.33473ZM39.0946 8.1563C38.5239 8.15843 37.8672 8.27535 37.13 8.58244C35.4389 9.28732 34.6268 10.7441 34.2819 11.8061C34.2819 11.8061 33.1842 15.0464 35.6642 16.8265C35.6642 16.8265 37.9643 18.5403 40.5535 16.7209L40.5089 17.0051C40.502 17.0492 40.5047 17.0943 40.5168 17.1373C40.529 17.1802 40.5503 17.2201 40.5793 17.254C40.6083 17.288 40.6443 17.3152 40.6848 17.334C40.7253 17.3527 40.7694 17.3624 40.8141 17.3625H42.9597C43.1243 17.3625 43.2641 17.2427 43.2899 17.0802L44.595 8.80354C44.602 8.7594 44.5994 8.71426 44.5872 8.67124C44.5751 8.62822 44.5538 8.58833 44.5248 8.55432C44.4958 8.52031 44.4598 8.49299 44.4192 8.47423C44.3787 8.45548 44.3345 8.44573 44.2898 8.44567H42.1442C41.9796 8.44567 41.8395 8.56543 41.814 8.72795L41.7438 9.17346C41.7438 9.17346 40.807 8.14992 39.0946 8.1563ZM39.1648 10.7705C39.4112 10.7705 39.6365 10.8046 39.8387 10.8695C40.7645 11.1667 41.2893 12.0561 41.1375 13.0201C40.9501 14.2071 39.9767 15.0811 38.7283 15.0811C38.4821 15.0811 38.2568 15.0473 38.0543 14.9824C37.1288 14.6852 36.6006 13.7958 36.7525 12.8318C36.9398 11.6448 37.9164 10.7705 39.1648 10.7705Z" fill="#003087"/>
<path d="M56.9791 4.63662C56.8144 4.63662 56.6746 4.75615 56.6488 4.9189L54.743 17.0051C54.7361 17.0493 54.7388 17.0944 54.751 17.1374C54.7632 17.1804 54.7845 17.2202 54.8136 17.2542C54.8426 17.2882 54.8787 17.3154 54.9193 17.3341C54.9599 17.3528 55.004 17.3625 55.0487 17.3625H57.3088C57.4733 17.3625 57.6133 17.2427 57.6391 17.0802L58.1989 13.531C58.2244 13.3685 58.3645 13.2487 58.5292 13.2487H60.584C62.985 13.2487 65.0229 11.4969 65.3949 9.12315C65.7705 6.72929 63.9006 4.64182 61.25 4.63662H56.9791ZM59.1762 7.33473H60.8203C62.1738 7.33473 62.6146 8.13339 62.4752 9.01661C62.3359 9.90173 61.6515 10.5537 60.3419 10.5537H58.6685L59.1762 7.33473ZM69.992 8.1563C69.4213 8.15843 68.7646 8.27535 68.0273 8.58244C66.3362 9.28732 65.5241 10.7441 65.1792 11.8061C65.1792 11.8061 64.082 15.0464 66.5621 16.8265C66.5621 16.8265 68.8617 18.5403 71.4511 16.7209L71.4065 17.0051C71.3995 17.0493 71.4023 17.0944 71.4144 17.1374C71.4266 17.1804 71.448 17.2202 71.477 17.2542C71.5061 17.2882 71.5421 17.3154 71.5827 17.3341C71.6233 17.3528 71.6675 17.3625 71.7121 17.3625H73.8575C74.0221 17.3625 74.162 17.2427 74.1877 17.0802L75.4933 8.80354C75.5003 8.75936 75.4977 8.71418 75.4855 8.67113C75.4734 8.62807 75.452 8.58816 75.423 8.55414C75.3939 8.52013 75.3579 8.49281 75.3172 8.47409C75.2766 8.45536 75.2324 8.44567 75.1877 8.44567H73.0421C72.8774 8.44567 72.7373 8.56543 72.7118 8.72795L72.6417 9.17346C72.6417 9.17346 71.7044 8.14992 69.992 8.1563ZM70.0621 10.7705C70.3085 10.7705 70.5339 10.8046 70.7361 10.8695C71.6618 11.1667 72.1867 12.0561 72.0348 13.0201C71.8475 14.2071 70.874 15.0811 69.6256 15.0811C69.3795 15.0811 69.1541 15.0473 68.9517 14.9824C68.0262 14.6852 67.498 13.7958 67.6499 12.8318C67.8372 11.6448 68.8137 10.7705 70.0621 10.7705Z" fill="#0070E0"/>
<path d="M45.6131 8.44567C45.443 8.44567 45.3221 8.61173 45.3741 8.77354L47.7263 16.073L45.5994 19.5128C45.4962 19.6798 45.6162 19.8955 45.8125 19.8955H48.3263C48.3982 19.8954 48.4689 19.8768 48.5315 19.8415C48.5941 19.8062 48.6465 19.7553 48.6837 19.6938L55.2533 8.82598C55.3541 8.65898 55.2337 8.44543 55.0386 8.44543H52.5249C52.4523 8.4455 52.381 8.46446 52.318 8.50045C52.2549 8.53644 52.2024 8.58823 52.1654 8.65071L49.5795 13.0165L48.2668 8.68307C48.2241 8.54205 48.0939 8.44543 47.9467 8.44543L45.6131 8.44567Z" fill="#003087"/>
<path d="M77.9311 4.63662C77.7667 4.63662 77.6266 4.75638 77.6009 4.9189L75.6946 17.0046C75.6876 17.0488 75.6902 17.094 75.7024 17.1371C75.7145 17.1801 75.7359 17.22 75.7649 17.254C75.794 17.2881 75.83 17.3154 75.8707 17.3341C75.9113 17.3528 75.9555 17.3625 76.0002 17.3625H78.2604C78.4248 17.3625 78.5649 17.2427 78.5906 17.0802L80.4965 4.99402C80.5034 4.94991 80.5007 4.90483 80.4885 4.86186C80.4764 4.8189 80.4551 4.77907 80.4261 4.74512C80.3971 4.71116 80.3611 4.68388 80.3205 4.66516C80.28 4.64643 80.2359 4.63669 80.1913 4.63662H77.9311Z" fill="#0070E0"/>
<path d="M7.23914 4.63662C7.09355 4.63674 6.95278 4.68878 6.84211 4.78338C6.73144 4.87799 6.65812 5.00896 6.63536 5.15276L5.63214 11.5156C5.67891 11.2184 5.93497 10.9994 6.23591 10.9994H9.17568C12.1343 10.9994 14.6449 8.8411 15.1036 5.91622C15.1378 5.69786 15.1571 5.47744 15.1615 5.25646C14.4096 4.86221 13.5264 4.63662 12.5586 4.63662H7.23914Z" fill="#001C64"/>
<path d="M15.1615 5.25646C15.1571 5.47744 15.1378 5.69786 15.1036 5.91622C14.6449 8.8411 12.1343 10.9994 9.17568 10.9994H6.23591C5.93497 10.9994 5.67891 11.2184 5.63214 11.5156L4.70969 17.3627L4.1319 21.0308C4.12062 21.1016 4.12485 21.1741 4.1443 21.2432C4.16375 21.3123 4.19796 21.3763 4.24456 21.4309C4.29116 21.4854 4.34904 21.5292 4.41421 21.5593C4.47938 21.5893 4.5503 21.6048 4.62206 21.6048H7.81292C7.95851 21.6047 8.09929 21.5526 8.20996 21.458C8.32062 21.3634 8.39392 21.2325 8.41669 21.0886L9.25716 15.7579C9.27994 15.614 9.35332 15.483 9.46408 15.3883C9.57485 15.2937 9.71575 15.2417 9.86142 15.2417H11.7401C14.6987 15.2417 17.2093 13.0834 17.668 10.1585C17.9938 8.0826 16.9483 6.19331 15.1615 5.25646Z" fill="#0070E0"/>
<path d="M3.61388 0.395508C3.31317 0.395508 3.05688 0.614248 3.01011 0.911177L0.506163 16.789C0.458682 17.0904 0.691602 17.363 0.996798 17.363L4.70969 17.3627L5.63214 11.5156L6.63536 5.15276C6.65812 5.00896 6.73144 4.87799 6.84211 4.78338C6.95278 4.68878 7.09355 4.63674 7.23914 4.63662H12.5586C13.5264 4.63662 14.4096 4.86221 15.1615 5.25646C15.213 2.59355 13.0154 0.395508 9.99442 0.395508H3.61388Z" fill="#003087"/>
</svg>
